<svg xmlns="http://www.w3.org/2000/svg" width="98" height="98" viewBox="0 0 98 98" xmlns:xlink="http://www.w3.org/1999/xlink"><defs><rect id="a" width="270" height="270" rx="8"/><linearGradient id="c" x1="0%" x2="97.178%" y1="0%" y2="100%"><stop stop-color="#504D7F" offset="0%"/><stop stop-color="#3C3A5E" offset="100%"/></linearGradient><path id="b" d="M0 34.006c0-3.317 2.206-7.545 4.922-9.44L38.078 1.434c2.718-1.897 7.128-1.895 9.844 0l33.156 23.132C83.796 26.463 86 30.688 86 34.006v37.988C86 75.31 83.308 78 80.004 78H5.996A6 6 0 0 1 0 71.994V34.006z"/><rect id="d" width="70" height="62" x="8" y="7" rx="3"/><path id="e" d="M0 40l43 14.431L0 72z"/><path id="f" d="M86 40L43 54.431 86 72z"/><path id="g" d="M0 71c0-1.657 1.218-3.566 2.722-4.266l34.832-16.201c3.008-1.399 7.881-1.4 10.892 0l34.832 16.2C84.78 67.434 86 69.35 86 71v1.01c0 3.308-2.692 5.99-5.996 5.99H5.996A5.992 5.992 0 0 1 0 72.01V71z"/></defs><g transform="translate(-92 -45)" fill="none" fill-rule="evenodd"><use xlink:href="#a"/><use fill="#FFF" xlink:href="#a"/><g transform="translate(98 55)"><use fill="#FFF" xlink:href="#b"/><path class="icon-color-stroke-primary icon-color-fill" stroke="url(#c)" stroke-width="2" d="M1 34.006v37.988A5 5 0 0 0 5.996 77h74.008A5.006 5.006 0 0 0 85 71.994V34.006c0-2.99-2.044-6.91-4.494-8.62L47.35 2.254c-2.373-1.655-6.326-1.656-8.7 0L5.494 25.386C3.046 27.094 1 31.017 1 34.006z"/><use fill="#FFF" xlink:href="#d"/><rect fill="#FFF" class="icon-color-stroke-primary" width="68" height="60" x="9" y="8" stroke="url(#c)" stroke-width="2" rx="3"/><rect class="icon-color-fill-secondary" width="50" height="2" x="18" y="17" fill="#FFA15A" rx="1"/><rect class="icon-color-fill-secondary" width="40" height="2" x="18" y="27" fill="#FFA15A" rx="1"/><rect class="icon-color-fill-secondary" width="45" height="2" x="18" y="37" fill="#FFA15A" rx="1"/><use fill="#FFF" xlink:href="#e"/><path fill="#FFF" class="icon-color-stroke-primary" stroke="url(#c)" stroke-width="2" d="M1 41.39v29.121l39.131-15.988L1 41.39z"/><use fill="#FFF" xlink:href="#f"/><path fill="#FFF" class="icon-color-stroke-primary" stroke="url(#c)" stroke-width="2" d="M85 41.39L45.869 54.523 85 70.511v-29.12z"/><use fill="#FFF" xlink:href="#g"/><path class="icon-color-stroke-primary" stroke="url(#c)" stroke-width="2" d="M1 71v1.01A4.992 4.992 0 0 0 5.996 77h74.008A4.998 4.998 0 0 0 85 72.01V71c0-1.264-.995-2.825-2.144-3.36l-34.832-16.2c-2.742-1.276-7.307-1.275-10.048 0L3.144 67.64C1.992 68.176 1 69.732 1 71z"/></g></g></svg>